<?xml version="1.0" standalone="no"?><!DOCTYPE svg PUBLIC "-//W3C//DTD SVG 1.1//EN" "http://www.w3.org/Graphics/SVG/1.1/DTD/svg11.dtd"><svg t="1534921497688" class="icon" style="" viewBox="0 0 2184 1024" version="1.1" xmlns="http://www.w3.org/2000/svg" p-id="1873" xmlns:xlink="http://www.w3.org/1999/xlink" width="426.5625" height="200"><defs><style type="text/css"></style></defs><path d="M583.68 890.88h78.506667l27.306666 88.746667 143.36-88.746667h170.666667V146.773333H583.68v744.106667z m81.92-662.186667h249.173333v580.266667H819.2l-95.573333 61.44-17.066667-58.026667h-40.96V228.693333zM512 488.106667H331.093333c6.826667-95.573333 10.24-177.493333 10.24-252.586667h174.08s6.826667-78.506667-30.72-75.093333H184.32C194.56 116.053333 211.626667 68.266667 228.693333 20.48c0 0-81.92 0-109.226666 75.093333-10.24 30.72-44.373333 146.773333-105.813334 266.24 20.48-3.413333 85.333333-3.413333 126.293334-75.093333 6.826667-20.48 10.24-23.893333 17.066666-51.2h98.986667c0 34.133333-3.413333 228.693333-6.826667 249.173333H71.68C30.72 484.693333 17.066667 566.613333 17.066667 566.613333h225.28c-13.653333 170.666667-95.573333 314.026667-242.346667 426.666667 68.266667 20.48 139.946667-3.413333 174.08-34.133333 0 0 78.506667-71.68 122.88-235.52l184.32 221.866666s27.306667-92.16-3.413333-136.533333c-27.306667-30.72-95.573333-112.64-126.293334-143.36l-51.2 40.96c13.653333-47.786667 23.893333-95.573333 27.306667-139.946667h211.626667c-3.413333 0-3.413333-78.506667-27.306667-78.506666z m1406.293333-6.826667c71.68-88.746667 153.6-201.386667 153.6-201.386667s-64.853333-51.2-92.16-13.653333c-20.48 27.306667-126.293333 163.84-126.293333 163.84l64.853333 51.2z m-512-201.386667c-30.72-27.306667-88.746667 6.826667-88.746666 6.826667s136.533333 187.733333 139.946666 194.56l64.853334-47.786667c0 3.413333-85.333333-126.293333-116.053334-153.6zM2184.533333 522.24c-68.266667 0-447.146667 3.413333-447.146666 3.413333V180.906667c17.066667 0 40.96 0 78.506666-3.413334 139.946667-6.826667 238.933333-13.653333 300.373334-17.066666 0 0 40.96-92.16-3.413334-112.64-10.24-3.413333-78.506667 17.066667-78.506666 17.066666S1471.146667 119.466667 1239.04 122.88c6.826667 30.72 27.306667 58.026667 54.613333 68.266667 44.373333 10.24 78.506667 6.826667 167.253334 3.413333 85.333333-6.826667 150.186667-6.826667 194.56-6.826667v341.333334H1198.08s10.24 75.093333 88.746667 78.506666h368.64v242.346667c0 47.786667-37.546667 75.093333-81.92 71.68-47.786667 0-88.746667-3.413333-143.36-6.826667 6.826667 13.653333 20.48 47.786667 64.853333 75.093334 34.133333 17.066667 54.613333 23.893333 88.746667 23.893333 102.4 0 157.013333-58.026667 153.6-153.6v-249.173333h416.426666c34.133333-6.826667 30.72-88.746667 30.72-88.746667z" p-id="1874" fill="#1296db"></path></svg>