<?xml version="1.0" standalone="no"?><!DOCTYPE svg PUBLIC "-//W3C//DTD SVG 1.1//EN" "http://www.w3.org/Graphics/SVG/1.1/DTD/svg11.dtd"><svg t="1535622945358" class="icon" style="" viewBox="0 0 1024 1024" version="1.1" xmlns="http://www.w3.org/2000/svg" p-id="2267" xmlns:xlink="http://www.w3.org/1999/xlink" width="200" height="200"><defs><style type="text/css"></style></defs><path d="M915.968 62.976c-2.048-0.512-4.608 0-6.656 0-5.12-0.512-10.24 0.512-15.36 3.584L101.888 536.064c-3.072 2.048-5.632 4.608-7.68 7.168-2.56 3.072-5.12 7.168-6.144 11.264-3.072 13.824 5.632 27.648 19.456 30.72l205.312 45.568c13.824 3.072 27.648-5.632 30.72-19.456 3.072-13.824-5.632-27.648-19.456-30.72l-143.872-31.744L881.152 133.12l-71.68 561.152L493.568 634.88l215.552-257.024c9.216-10.752 7.68-27.136-3.072-35.84-10.752-9.216-27.136-7.68-35.84 3.072l-242.176 288.256c-3.584 3.584-6.656 8.192-7.68 13.824-0.512 2.048-0.512 4.608-0.512 6.656V957.44c0 6.656 2.56 13.312 7.68 18.432 10.24 10.24 26.112 10.24 36.352 0l180.736-257.536c10.24-10.24 10.24-26.112 0-36.352s-26.112-10.24-36.352 0L471.04 896v-212.48l348.672 65.536c2.56 0.512 5.12 0.512 7.68 0h0.512c13.824 2.048 26.624-8.192 28.672-22.016l81.408-635.904c2.048-13.824-8.192-26.624-22.016-28.16z" fill="#2c2c2c" p-id="2268"></path></svg>