<?xml version="1.0" standalone="no"?><!DOCTYPE svg PUBLIC "-//W3C//DTD SVG 1.1//EN" "http://www.w3.org/Graphics/SVG/1.1/DTD/svg11.dtd"><svg t="1535003842270" class="icon" style="" viewBox="0 0 1027 1024" version="1.1" xmlns="http://www.w3.org/2000/svg" p-id="3234" xmlns:xlink="http://www.w3.org/1999/xlink" width="200.5859375" height="200"><defs><style type="text/css"></style></defs><path d="M303.337651 1005.543201c-27.365323 21.575582-63.255321 22.37527-91.516294 2.095183-28.260974-20.312075-40.000394-55.322416-30.004294-89.389124l64.150971-217.57911c9.9961-33.938759-1.711332-68.901118-29.86035-89.261174L35.746053 481.26775c-28.165011-20.328069-39.872444-55.338409-29.844356-89.325149 10.044081-33.954752 38.656918-56.250054 73.027508-56.841823l218.81063-3.902477c34.49854-0.623757 63.223333-23.078996 73.155458-57.193686l62.99942-216.763428c9.900137-34.098696 38.544961-56.537941 72.979527-57.225673 34.434565-0.671738 63.895071 20.647944 75.026728 54.314809l70.884344 214.060483c11.195632 33.73084 40.720113 55.050522 75.186665 54.266827l218.778642-4.718159c34.322609-0.751707 63.767121 20.37605 75.042722 53.962946 11.275601 33.522921 0.895651 68.99708-26.50166 90.412725l-175.483534 137.210466c-27.365323 21.415645-37.793255 56.825829-26.533648 90.34875l72.083876 214.94014c11.259607 33.586896 0.783694 69.077049-26.709579 90.460706s-63.351283 21.975426-91.516294 1.519407L568.738103 866.973265c-28.276968-20.551982-64.406871-19.86425-91.916138 1.807295L303.337651 1005.543201z" p-id="3235" fill="#515151"></path></svg>